<svg width="500" height="250" viewBox="0 0 500 250" fill="none" xmlns="http://www.w3.org/2000/svg">
<rect width="500" height="250" fill="url(#paint0_linear_31_36)"/>
<path d="M194.068 123L194.024 121.636C193.995 116.943 196.547 113.071 201.68 110.02L206.652 107.116C208.324 106.119 209.541 105.121 210.304 104.124C211.096 103.097 211.492 101.895 211.492 100.516C211.492 98.9907 210.949 97.7 209.864 96.644C208.749 95.6173 207.312 95.104 205.552 95.104C202.971 95.104 201.152 96.1307 200.096 98.184C199.685 98.976 199.465 100.12 199.436 101.616L194.332 100.956C194.273 99.5187 194.581 98.0667 195.256 96.6C195.931 95.1333 196.913 93.872 198.204 92.816C200.14 91.232 202.619 90.44 205.64 90.44C209.043 90.44 211.771 91.4667 213.824 93.52C215.731 95.4853 216.684 97.788 216.684 100.428C216.684 102.393 216.156 104.197 215.1 105.84C214.073 107.512 212.607 108.905 210.7 110.02L204.848 113.452C204.672 113.54 204.452 113.672 204.188 113.848C203.953 114.024 203.792 114.141 203.704 114.2C203.176 114.581 202.751 114.904 202.428 115.168C201.343 116.077 200.639 117.163 200.316 118.424H216.992V123H194.068ZM241.902 121.152C239.82 122.648 237.473 123.396 234.862 123.396C232.222 123.396 229.876 122.663 227.822 121.196C225.74 119.7 224.156 117.735 223.07 115.3C221.985 112.836 221.442 110.049 221.442 106.94C221.442 102.276 222.674 98.3893 225.138 95.28C227.661 92.0827 230.932 90.484 234.95 90.484C237.59 90.484 239.937 91.2027 241.99 92.64C244.073 94.1653 245.657 96.1453 246.742 98.58C247.828 101.015 248.37 103.787 248.37 106.896C248.37 109.976 247.828 112.748 246.742 115.212C245.598 117.764 243.985 119.744 241.902 121.152ZM239.262 96.732C237.913 95.6467 236.446 95.104 234.862 95.104C233.249 95.104 231.797 95.632 230.506 96.688C227.925 98.8587 226.634 102.261 226.634 106.896C226.576 110.152 227.338 112.953 228.922 115.3C230.506 117.617 232.516 118.761 234.95 118.732C236.593 118.732 238.045 118.189 239.306 117.104C240.538 116.077 241.492 114.669 242.166 112.88C242.841 111.032 243.178 109.052 243.178 106.94C243.178 102.393 241.873 98.9907 239.262 96.732ZM268.299 123V115.916H251.799V110.284L267.067 90.924H273.227V111.34H278.023V115.916H273.227V123H268.299ZM268.299 111.34V96.512L256.551 111.34H268.299ZM293.603 123.352C290.611 123.352 287.957 122.604 285.639 121.108C284.525 120.375 283.63 119.407 282.955 118.204C282.281 116.972 281.943 115.652 281.943 114.244C281.943 112.543 282.471 110.988 283.527 109.58C284.613 108.113 286.079 107.072 287.927 106.456C286.373 105.928 285.097 104.989 284.099 103.64C283.131 102.32 282.647 100.868 282.647 99.284C282.647 97.9933 282.955 96.776 283.571 95.632C284.217 94.488 285.082 93.5493 286.167 92.816C288.367 91.232 290.846 90.44 293.603 90.44C295.481 90.44 297.226 90.792 298.839 91.496C300.511 92.2 301.89 93.2267 302.975 94.576C304.031 95.9547 304.559 97.524 304.559 99.284C304.559 100.78 304.075 102.203 303.107 103.552C302.198 104.872 300.922 105.84 299.279 106.456C301.157 107.043 302.638 108.084 303.723 109.58C304.75 110.959 305.263 112.513 305.263 114.244C305.263 115.945 304.794 117.456 303.855 118.776C302.917 120.096 301.67 121.123 300.115 121.856C298.15 122.853 295.979 123.352 293.603 123.352ZM287.619 99.68C287.619 101.029 288.206 102.173 289.379 103.112C290.553 104.021 291.961 104.476 293.603 104.476C295.363 104.476 296.801 104.021 297.915 103.112C299.001 102.232 299.543 101.088 299.543 99.68C299.543 98.272 298.957 97.1133 297.783 96.204C296.669 95.2947 295.261 94.84 293.559 94.84C291.829 94.84 290.406 95.28 289.291 96.16C288.177 97.0987 287.619 98.272 287.619 99.68ZM286.959 113.76C286.959 115.197 287.605 116.444 288.895 117.5C290.157 118.497 291.726 118.996 293.603 118.996C295.481 118.996 297.065 118.512 298.355 117.544C299.617 116.547 300.247 115.285 300.247 113.76C300.247 112.293 299.602 111.047 298.311 110.02C296.962 109.023 295.378 108.524 293.559 108.524C291.653 108.524 290.098 109.023 288.895 110.02C287.605 110.988 286.959 112.235 286.959 113.76Z" fill="#111111"/>
<path d="M181.312 153.96V159H179.488V147.336H181.312V152.232H187.088V147.336H188.928V159H187.088V153.96H181.312ZM193.782 159.144C193.004 159.144 192.364 158.92 191.862 158.472C191.361 158.035 191.11 157.475 191.11 156.792V156.712C191.121 155.699 191.633 154.995 192.646 154.6C193.19 154.387 193.777 154.28 194.406 154.28H195.398C195.889 154.28 196.134 154.056 196.134 153.608C196.134 153.267 196.001 152.979 195.734 152.744C195.446 152.509 195.057 152.392 194.566 152.392C194.097 152.392 193.708 152.515 193.398 152.76C193.089 152.995 192.902 153.315 192.838 153.72L191.222 153.352C191.276 152.979 191.457 152.579 191.766 152.152C192.097 151.725 192.513 151.405 193.014 151.192C193.452 150.989 193.99 150.888 194.63 150.888C196.124 150.888 197.116 151.432 197.606 152.52C197.788 152.915 197.878 153.384 197.878 153.928V157.72C197.878 158.253 197.894 158.68 197.926 159H196.198C196.145 158.755 196.118 158.392 196.118 157.912C195.852 158.349 195.51 158.664 195.094 158.856C194.668 159.048 194.23 159.144 193.782 159.144ZM196.118 155.528H194.406C194.033 155.528 193.686 155.624 193.366 155.816C193.046 156.019 192.886 156.291 192.886 156.632C192.886 156.963 193.004 157.229 193.238 157.432C193.473 157.624 193.777 157.72 194.15 157.72C194.758 157.72 195.238 157.544 195.59 157.192C195.942 156.84 196.118 156.371 196.118 155.784V155.528ZM212.602 150.968C212.602 152.003 212.24 152.872 211.514 153.576C210.757 154.312 209.685 154.68 208.298 154.68H206.218V159H204.394V147.336H208.522C210.165 147.336 211.328 147.859 212.01 148.904C212.405 149.512 212.602 150.2 212.602 150.968ZM210.746 151C210.746 150.467 210.565 150.008 210.202 149.624C209.84 149.229 209.226 149.032 208.362 149.032H206.218V153H208.362C209.216 153 209.834 152.781 210.218 152.344C210.57 151.939 210.746 151.491 210.746 151ZM220.083 159H218.355C218.301 158.755 218.275 158.392 218.275 157.912C218.008 158.349 217.667 158.664 217.251 158.856C216.824 159.048 216.387 159.144 215.939 159.144C215.16 159.144 214.52 158.92 214.019 158.472C213.517 158.035 213.267 157.475 213.267 156.792V156.712C213.277 155.699 213.789 154.995 214.803 154.6C215.347 154.387 215.933 154.28 216.562 154.28H217.555C218.045 154.28 218.291 154.056 218.291 153.608C218.291 153.267 218.157 152.979 217.891 152.744C217.603 152.509 217.213 152.392 216.723 152.392C216.253 152.392 215.864 152.515 215.555 152.76C215.245 152.995 215.059 153.315 214.995 153.72L213.379 153.352C213.432 152.979 213.613 152.579 213.923 152.152C214.253 151.725 214.669 151.405 215.171 151.192C215.608 150.989 216.147 150.888 216.786 150.888C218.28 150.888 219.272 151.432 219.763 152.52C219.944 152.915 220.035 153.384 220.035 153.928V157.72C220.035 158.253 220.051 158.68 220.083 159ZM218.275 155.784V155.528H216.562C216.189 155.528 215.843 155.624 215.523 155.816C215.203 156.019 215.043 156.291 215.043 156.632C215.043 156.963 215.16 157.229 215.395 157.432C215.629 157.624 215.933 157.72 216.307 157.72C216.915 157.72 217.395 157.544 217.747 157.192C218.099 156.84 218.275 156.371 218.275 155.784ZM224.901 159.144C223.717 159.133 222.848 158.76 222.293 158.024C221.973 157.608 221.797 157.208 221.765 156.824L223.285 156.424C223.37 156.808 223.552 157.117 223.829 157.352C224.106 157.576 224.458 157.688 224.885 157.688C225.237 157.688 225.509 157.608 225.701 157.448C225.904 157.277 226.005 157.048 226.005 156.76C226.005 156.323 225.69 156.029 225.061 155.88L224.053 155.64C223.37 155.48 222.848 155.203 222.485 154.808C222.122 154.403 221.941 153.923 221.941 153.368C221.941 152.685 222.213 152.099 222.757 151.608C223.301 151.117 223.968 150.872 224.757 150.872C225.877 150.883 226.693 151.235 227.205 151.928C227.472 152.28 227.632 152.637 227.685 153L226.197 153.416C226.122 153.085 225.962 152.819 225.717 152.616C225.482 152.413 225.162 152.312 224.757 152.312C224.458 152.312 224.202 152.397 223.989 152.568C223.776 152.717 223.669 152.931 223.669 153.208C223.669 153.656 223.936 153.933 224.469 154.04L225.557 154.264C226.272 154.424 226.826 154.717 227.221 155.144C227.616 155.592 227.813 156.099 227.813 156.664C227.813 157.336 227.557 157.917 227.045 158.408C226.544 158.899 225.829 159.144 224.901 159.144ZM233.3 159.144C232.148 159.165 231.161 158.771 230.34 157.96C229.529 157.139 229.135 156.152 229.156 155C229.156 154.253 229.337 153.565 229.7 152.936C230.052 152.307 230.553 151.805 231.204 151.432C231.833 151.069 232.537 150.888 233.316 150.888C234.265 150.888 235.071 151.139 235.732 151.64C236.393 152.131 236.815 152.733 236.996 153.448L235.396 153.976C235.3 153.635 235.097 153.309 234.788 153C234.425 152.659 233.935 152.488 233.316 152.488C232.665 152.488 232.111 152.717 231.652 153.176C231.204 153.645 230.98 154.248 230.98 154.984C230.98 155.709 231.199 156.317 231.636 156.808C232.084 157.288 232.649 157.528 233.332 157.528C234.345 157.528 235.044 157.021 235.428 156.008L237.044 156.536C236.863 157.187 236.468 157.768 235.86 158.28C235.199 158.856 234.345 159.144 233.3 159.144ZM245.098 159H243.37C243.317 158.755 243.29 158.392 243.29 157.912C243.023 158.349 242.682 158.664 242.266 158.856C241.839 159.048 241.402 159.144 240.954 159.144C240.175 159.144 239.535 158.92 239.034 158.472C238.533 158.035 238.282 157.475 238.282 156.792V156.712C238.293 155.699 238.805 154.995 239.818 154.6C240.362 154.387 240.949 154.28 241.578 154.28H242.57C243.061 154.28 243.306 154.056 243.306 153.608C243.306 153.267 243.173 152.979 242.906 152.744C242.618 152.509 242.229 152.392 241.738 152.392C241.269 152.392 240.879 152.515 240.57 152.76C240.261 152.995 240.074 153.315 240.01 153.72L238.394 153.352C238.447 152.979 238.629 152.579 238.938 152.152C239.269 151.725 239.685 151.405 240.186 151.192C240.623 150.989 241.162 150.888 241.802 150.888C243.295 150.888 244.287 151.432 244.778 152.52C244.959 152.915 245.05 153.384 245.05 153.928V157.72C245.05 158.253 245.066 158.68 245.098 159ZM243.29 155.784V155.528H241.578C241.205 155.528 240.858 155.624 240.538 155.816C240.218 156.019 240.058 156.291 240.058 156.632C240.058 156.963 240.175 157.229 240.41 157.432C240.645 157.624 240.949 157.72 241.322 157.72C241.93 157.72 242.41 157.544 242.762 157.192C243.114 156.84 243.29 156.371 243.29 155.784ZM249.101 146.872V159H247.325V146.872H249.101ZM253.241 156.264L252.153 159H250.281L255.033 147.336H257.193L261.913 159H260.009L258.937 156.264H253.241ZM253.881 154.632H258.313L256.089 149.096L253.881 154.632ZM263.426 147.336H267.89C269.02 147.336 269.927 147.608 270.61 148.152C271.292 148.707 271.634 149.459 271.634 150.408C271.634 150.803 271.527 151.219 271.314 151.656C271.068 152.2 270.615 152.621 269.954 152.92C270.786 153.187 271.378 153.613 271.73 154.2C272.018 154.712 272.162 155.224 272.162 155.736C272.162 156.707 271.81 157.496 271.106 158.104C270.391 158.701 269.362 159 268.018 159H263.426V147.336ZM265.234 152.28H267.538C268.306 152.28 268.871 152.12 269.234 151.8C269.618 151.48 269.81 151.08 269.81 150.6C269.81 150.099 269.628 149.704 269.266 149.416C268.903 149.128 268.359 148.984 267.634 148.984H265.234V152.28ZM265.25 157.352H268.05C268.775 157.352 269.335 157.197 269.73 156.888C270.135 156.568 270.338 156.136 270.338 155.592C270.338 155.069 270.13 154.653 269.714 154.344C269.308 154.035 268.716 153.88 267.938 153.88H265.25V157.352ZM279.451 159.144C278.566 159.155 277.707 158.963 276.875 158.568C276.054 158.173 275.366 157.624 274.811 156.92C274 155.917 273.595 154.68 273.595 153.208C273.595 152.355 273.755 151.544 274.075 150.776C274.395 150.029 274.827 149.389 275.371 148.856C275.926 148.333 276.56 147.923 277.275 147.624C278.011 147.315 278.763 147.16 279.531 147.16C280.758 147.16 281.83 147.453 282.747 148.04C283.174 148.339 283.526 148.643 283.803 148.952C284.358 149.581 284.731 150.259 284.923 150.984L283.115 151.608C283.019 151.181 282.827 150.76 282.539 150.344C282.336 150.056 282.112 149.821 281.867 149.64C281.27 149.139 280.486 148.888 279.515 148.888C278.47 148.888 277.547 149.272 276.747 150.04C275.926 150.84 275.515 151.875 275.515 153.144C275.515 154.435 275.92 155.475 276.731 156.264C277.52 157.032 278.443 157.416 279.499 157.416C280.384 157.416 281.136 157.176 281.755 156.696C282.043 156.461 282.278 156.227 282.459 155.992C282.79 155.555 283.019 155.107 283.147 154.648L284.955 155.272C284.688 156.232 284.155 157.053 283.355 157.736C282.662 158.323 281.888 158.728 281.035 158.952C280.523 159.08 279.995 159.144 279.451 159.144ZM285.677 157.784C285.677 157.411 285.805 157.096 286.061 156.84C286.338 156.584 286.642 156.456 286.973 156.456C287.314 156.456 287.624 156.584 287.901 156.84C288.146 157.085 288.269 157.4 288.269 157.784C288.269 158.147 288.146 158.451 287.901 158.696C287.645 158.952 287.336 159.08 286.973 159.08C286.632 159.08 286.328 158.947 286.061 158.68C285.805 158.445 285.677 158.147 285.677 157.784ZM300.484 159H298.436L292.452 150.072V159H290.644V147.336H292.756L298.676 156.216V147.336H300.484V159ZM303.441 147.336H310.913V149H305.265V152.232H310.401V153.896H305.265V157.336H310.961V159H303.441V147.336ZM315.828 159V149.032H312.116V147.336H321.364V149.032H317.652V159H315.828Z" fill="#555555"/>
<defs>
<linearGradient id="paint0_linear_31_36" x1="500" y1="-1.49012e-05" x2="0" y2="250" gradientUnits="userSpaceOnUse">
<stop stop-color="#FFE9B1"/>
<stop offset="1" stop-color="#E1BD61"/>
</linearGradient>
</defs>
</svg>
