<svg xmlns="http://www.w3.org/2000/svg" width="500" height="250" fill="none">
  <path fill="url(#a)" d="M0 0h500v250H0z"/>
  <path fill="#000" d="m199.88 120-.04-1.24c-.027-4.267 2.293-7.787 6.96-10.56l4.52-2.64c1.52-.907 2.627-1.813 3.32-2.72.72-.933 1.08-2.027 1.08-3.28 0-1.387-.493-2.56-1.48-3.52-1.013-.933-2.32-1.4-3.92-1.4-2.347 0-4 .933-4.96 2.8-.373.72-.573 1.76-.6 3.12l-4.64-.6c-.053-1.307.227-2.627.84-3.96a9.57 9.57 0 0 1 2.68-3.44c1.76-1.44 4.013-2.16 6.76-2.16 3.093 0 5.573.933 7.44 2.8 1.733 1.787 2.6 3.88 2.6 6.28 0 1.787-.48 3.427-1.44 4.92-.933 1.52-2.267 2.787-4 3.8l-5.32 3.12c-.16.08-.36.2-.6.36-.213.16-.36.267-.44.32-.48.347-.867.64-1.16.88-.987.827-1.627 1.813-1.92 2.96h15.16V120h-20.84Zm43.486-1.68c-1.894 1.36-4.027 2.04-6.4 2.04-2.4 0-4.534-.667-6.4-2-1.894-1.36-3.334-3.147-4.32-5.36-.987-2.24-1.48-4.773-1.48-7.6 0-4.24 1.12-7.773 3.36-10.6 2.293-2.907 5.266-4.36 8.92-4.36 2.4 0 4.533.653 6.4 1.96 1.893 1.387 3.333 3.187 4.32 5.4.986 2.213 1.48 4.733 1.48 7.56 0 2.8-.494 5.32-1.48 7.56-1.04 2.32-2.507 4.12-4.4 5.4Zm-2.4-22.2c-1.227-.987-2.56-1.48-4-1.48-1.467 0-2.787.48-3.96 1.44-2.347 1.973-3.52 5.067-3.52 9.28-.054 2.96.64 5.507 2.08 7.64 1.44 2.107 3.266 3.147 5.48 3.12 1.493 0 2.813-.493 3.96-1.48 1.12-.933 1.986-2.213 2.6-3.84.613-1.68.92-3.48.92-5.4 0-4.133-1.187-7.227-3.56-9.28ZM267.363 120v-6.44h-15v-5.12l13.88-17.6h5.6v18.56h4.36v4.16h-4.36V120h-4.48Zm0-10.6V95.92l-10.68 13.48h10.68Zm23.004 10.92c-2.72 0-5.134-.68-7.24-2.04a7.49 7.49 0 0 1-2.44-2.64 7.372 7.372 0 0 1-.92-3.6c0-1.547.48-2.96 1.44-4.24.986-1.333 2.32-2.28 4-2.84-1.414-.48-2.574-1.333-3.48-2.56-.88-1.2-1.32-2.52-1.32-3.96a6.9 6.9 0 0 1 .84-3.32 7.479 7.479 0 0 1 2.36-2.56c2-1.44 4.253-2.16 6.76-2.16 1.706 0 3.293.32 4.76.96 1.52.64 2.773 1.573 3.76 2.8.96 1.253 1.44 2.68 1.44 4.28 0 1.36-.44 2.653-1.32 3.88-.827 1.2-1.987 2.08-3.48 2.64 1.706.533 3.053 1.48 4.04 2.84a6.923 6.923 0 0 1 1.4 4.24c0 1.547-.427 2.92-1.28 4.12-.854 1.2-1.987 2.133-3.4 2.8-1.787.907-3.76 1.36-5.92 1.36Zm-5.44-21.52c0 1.227.533 2.267 1.6 3.12 1.066.827 2.346 1.24 3.84 1.24 1.6 0 2.906-.413 3.92-1.24.986-.8 1.48-1.84 1.48-3.12s-.534-2.333-1.6-3.16c-1.014-.827-2.294-1.24-3.84-1.24-1.574 0-2.867.4-3.88 1.2-1.014.853-1.52 1.92-1.52 3.2Zm-.6 12.8c0 1.307.586 2.44 1.76 3.4 1.146.907 2.573 1.36 4.28 1.36 1.706 0 3.146-.44 4.32-1.32 1.146-.907 1.72-2.053 1.72-3.44 0-1.333-.587-2.467-1.76-3.4-1.227-.907-2.667-1.36-4.32-1.36-1.734 0-3.147.453-4.24 1.36-1.174.88-1.76 2.013-1.76 3.4Z"/>
  <path fill="#333" d="M181.312 153.96V159h-1.824v-11.664h1.824v4.896h5.776v-4.896h1.84V159h-1.84v-5.04h-5.776Zm12.47 5.184c-.778 0-1.418-.224-1.92-.672-.501-.437-.752-.997-.752-1.68v-.08c.011-1.013.523-1.717 1.536-2.112a4.786 4.786 0 0 1 1.76-.32h.992c.491 0 .736-.224.736-.672 0-.341-.133-.629-.4-.864-.288-.235-.677-.352-1.168-.352-.469 0-.858.123-1.168.368a1.44 1.44 0 0 0-.56.96l-1.616-.368c.054-.373.235-.773.544-1.2a3.075 3.075 0 0 1 1.248-.96c.438-.203.976-.304 1.616-.304 1.494 0 2.486.544 2.976 1.632.182.395.272.864.272 1.408v3.792c0 .533.016.96.048 1.28h-1.728c-.053-.245-.08-.608-.08-1.088-.266.437-.608.752-1.024.944a3.164 3.164 0 0 1-1.312.288Zm2.336-3.616h-1.712c-.373 0-.72.096-1.04.288-.32.203-.48.475-.48.816 0 .331.118.597.352.8.235.192.539.288.912.288.608 0 1.088-.176 1.44-.528.352-.352.528-.821.528-1.408v-.256Zm16.484-4.56c0 1.035-.362 1.904-1.088 2.608-.757.736-1.829 1.104-3.216 1.104h-2.08V159h-1.824v-11.664h4.128c1.643 0 2.806.523 3.488 1.568.395.608.592 1.296.592 2.064Zm-1.856.032c0-.533-.181-.992-.544-1.376-.362-.395-.976-.592-1.84-.592h-2.144V153h2.144c.854 0 1.472-.219 1.856-.656.352-.405.528-.853.528-1.344Zm9.337 8h-1.728c-.054-.245-.08-.608-.08-1.088-.267.437-.608.752-1.024.944a3.167 3.167 0 0 1-1.312.288c-.779 0-1.419-.224-1.92-.672-.502-.437-.752-.997-.752-1.68v-.08c.01-1.013.522-1.717 1.536-2.112a4.78 4.78 0 0 1 1.759-.32h.993c.49 0 .736-.224.736-.672a1.11 1.11 0 0 0-.4-.864c-.288-.235-.678-.352-1.168-.352-.47 0-.859.123-1.168.368-.31.235-.496.555-.56.96l-1.616-.368c.053-.373.234-.773.544-1.2.33-.427.746-.747 1.248-.96.437-.203.976-.304 1.615-.304 1.494 0 2.486.544 2.977 1.632.181.395.272.864.272 1.408v3.792c0 .533.016.96.048 1.28Zm-1.808-3.216v-.256h-1.713c-.373 0-.719.096-1.039.288-.32.203-.48.475-.48.816 0 .331.117.597.352.8.234.192.538.288.912.288.608 0 1.088-.176 1.44-.528.352-.352.528-.821.528-1.408Zm6.626 3.36c-1.184-.011-2.053-.384-2.608-1.12-.32-.416-.496-.816-.528-1.2l1.52-.4c.085.384.267.693.544.928.277.224.629.336 1.056.336.352 0 .624-.08.816-.24a.853.853 0 0 0 .304-.688c0-.437-.315-.731-.944-.88l-1.008-.24c-.683-.16-1.205-.437-1.568-.832a2.085 2.085 0 0 1-.544-1.44c0-.683.272-1.269.816-1.76.544-.491 1.211-.736 2-.736 1.12.011 1.936.363 2.448 1.056.267.352.427.709.48 1.072l-1.488.416a1.41 1.41 0 0 0-.48-.8c-.235-.203-.555-.304-.96-.304-.299 0-.555.085-.768.256a.735.735 0 0 0-.32.64c0 .448.267.725.8.832l1.088.224c.715.16 1.269.453 1.664.88.395.448.592.955.592 1.52 0 .672-.256 1.253-.768 1.744-.501.491-1.216.736-2.144.736Zm8.399 0c-1.152.021-2.139-.373-2.96-1.184-.811-.821-1.205-1.808-1.184-2.96 0-.747.181-1.435.544-2.064a3.916 3.916 0 0 1 1.504-1.504c.629-.363 1.333-.544 2.112-.544.949 0 1.755.251 2.416.752.661.491 1.083 1.093 1.264 1.808l-1.6.528c-.096-.341-.299-.667-.608-.976-.363-.341-.853-.512-1.472-.512-.651 0-1.205.229-1.664.688-.448.469-.672 1.072-.672 1.808 0 .725.219 1.333.656 1.824.448.48 1.013.72 1.696.72 1.013 0 1.712-.507 2.096-1.52l1.616.528c-.181.651-.576 1.232-1.184 1.744-.661.576-1.515.864-2.56.864Zm11.798-.144h-1.728c-.053-.245-.08-.608-.08-1.088-.267.437-.608.752-1.024.944a3.167 3.167 0 0 1-1.312.288c-.779 0-1.419-.224-1.92-.672-.501-.437-.752-.997-.752-1.68v-.08c.011-1.013.523-1.717 1.536-2.112a4.786 4.786 0 0 1 1.76-.32h.992c.491 0 .736-.224.736-.672 0-.341-.133-.629-.4-.864-.288-.235-.677-.352-1.168-.352-.469 0-.859.123-1.168.368a1.44 1.44 0 0 0-.56.96l-1.616-.368c.053-.373.235-.773.544-1.2a3.075 3.075 0 0 1 1.248-.96c.437-.203.976-.304 1.616-.304 1.493 0 2.485.544 2.976 1.632.181.395.272.864.272 1.408v3.792c0 .533.016.96.048 1.28Zm-1.808-3.216v-.256h-1.712c-.373 0-.72.096-1.04.288-.32.203-.48.475-.48.816 0 .331.117.597.352.8.235.192.539.288.912.288.608 0 1.088-.176 1.44-.528.352-.352.528-.821.528-1.408Zm5.811-8.912V159h-1.776v-12.128h1.776Zm4.14 9.392L252.153 159h-1.872l4.752-11.664h2.16l4.72 11.664h-1.904l-1.072-2.736h-5.696Zm.64-1.632h4.432l-2.224-5.536-2.208 5.536Zm9.545-7.296h4.464c1.13 0 2.037.272 2.72.816.682.555 1.024 1.307 1.024 2.256 0 .395-.107.811-.32 1.248-.246.544-.699.965-1.36 1.264.832.267 1.424.693 1.776 1.28.288.512.432 1.024.432 1.536 0 .971-.352 1.76-1.056 2.368-.715.597-1.744.896-3.088.896h-4.592v-11.664Zm1.808 4.944h2.304c.768 0 1.333-.16 1.696-.48.384-.32.576-.72.576-1.2 0-.501-.182-.896-.544-1.184-.363-.288-.907-.432-1.632-.432h-2.4v3.296Zm.016 5.072h2.8c.725 0 1.285-.155 1.68-.464.405-.32.608-.752.608-1.296 0-.523-.208-.939-.624-1.248-.406-.309-.998-.464-1.776-.464h-2.688v3.472Zm14.201 1.792a5.771 5.771 0 0 1-2.576-.576 5.783 5.783 0 0 1-2.064-1.648c-.811-1.003-1.216-2.24-1.216-3.712 0-.853.16-1.664.48-2.432a5.913 5.913 0 0 1 1.296-1.92 6.286 6.286 0 0 1 1.904-1.232 5.778 5.778 0 0 1 2.256-.464c1.227 0 2.299.293 3.216.88.427.299.779.603 1.056.912.555.629.928 1.307 1.12 2.032l-1.808.624a3.616 3.616 0 0 0-.576-1.264 3.044 3.044 0 0 0-.672-.704c-.597-.501-1.381-.752-2.352-.752-1.045 0-1.968.384-2.768 1.152-.821.8-1.232 1.835-1.232 3.104 0 1.291.405 2.331 1.216 3.12.789.768 1.712 1.152 2.768 1.152.885 0 1.637-.24 2.256-.72a4.015 4.015 0 0 0 1.392-2.048l1.808.624c-.267.96-.8 1.781-1.6 2.464a5.852 5.852 0 0 1-2.32 1.216 6.506 6.506 0 0 1-1.584.192Zm6.226-1.36c0-.373.128-.688.384-.944.277-.256.581-.384.912-.384.341 0 .651.128.928.384.245.245.368.56.368.944 0 .363-.123.667-.368.912a1.264 1.264 0 0 1-.928.384c-.341 0-.645-.133-.912-.4a1.162 1.162 0 0 1-.384-.896ZM300.484 159h-2.048l-5.984-8.928V159h-1.808v-11.664h2.112l5.92 8.88v-8.88h1.808V159Zm2.957-11.664h7.472V149h-5.648v3.232h5.136v1.664h-5.136v3.44h5.696V159h-7.52v-11.664ZM315.828 159v-9.968h-3.712v-1.696h9.248v1.696h-3.712V159h-1.824Z"/>
  <defs>
    <linearGradient id="a" x1="500" x2="0" y1="0" y2="250" gradientUnits="userSpaceOnUse">
      <stop stop-color="#FFE9B1"/>
      <stop offset="1" stop-color="#E1BD61"/>
    </linearGradient>
  </defs>
</svg>
